<svg height="374pt" viewBox="-31 0 374 374.44422" width="374pt" xmlns="http://www.w3.org/2000/svg"><path d="m149.707031 180.652344h-95.316406c-34.527344 59.523437-14.265625 135.769531 45.257813 170.296875 59.523437 34.53125 135.769531 14.265625 170.296874-45.257813 22.429688-38.664062 22.429688-86.375 0-125.039062h-76.628906" fill="#fa6900"/><g fill="#ba4e00"><path d="m162.167969 336.398438c-62.859375-.023438-115.847657-46.886719-123.558594-109.273438-8.875 68.238281 39.25 130.753906 107.492187 139.625 68.238282 8.875 130.75-39.25 139.625-107.488281 1.386719-10.667969 1.386719-21.46875 0-32.136719-7.707031 62.386719-60.695312 109.25-123.558593 109.273438zm0 0"/><path d="m123.804688 224.261719c-3.441407 0-6.230469-2.789063-6.230469-6.230469.027343-14.226562 3.804687-28.195312 10.953125-40.496094 1.808594-2.925781 5.648437-3.828125 8.578125-2.019531 2.800781 1.734375 3.769531 5.347656 2.207031 8.25-6.054688 10.40625-9.253906 22.226563-9.277344 34.265625 0 3.441406-2.789062 6.230469-6.230468 6.230469zm0 0"/><path d="m232.714844 299.019531c-.855469.003907-1.707032-.175781-2.492188-.523437-3.148437-1.378906-4.582031-5.046875-3.207031-8.199219 15.097656-34.441406 12.847656-74.019531-6.054687-106.53125-1.628907-3.027344-.496094-6.804687 2.535156-8.4375 2.898437-1.558594 6.515625-.59375 8.25 2.210937 20.886718 35.933594 23.371094 79.675782 6.683594 117.742188-.992188 2.273438-3.234376 3.738281-5.714844 3.738281zm0 0"/><path d="m74.949219 249.179688c-3.441407 0-6.226563-2.789063-6.226563-6.230469.027344-22.976563 6.113282-45.539063 17.640625-65.414063 1.847657-2.902344 5.695313-3.761718 8.601563-1.914062 2.730468 1.738281 3.675781 5.277344 2.175781 8.144531-10.425781 17.984375-15.929687 38.398437-15.960937 59.183594 0 3.441406-2.789063 6.230469-6.230469 6.230469zm0 0"/><path d="m205.085938 230.492188c-3.441407 0-6.226563-2.792969-6.226563-6.230469-.023437-14.226563-3.792969-28.191407-10.929687-40.496094-1.59375-3.046875-.414063-6.8125 2.632812-8.40625 2.871094-1.5 6.410156-.554687 8.144531 2.175781 8.238281 14.199219 12.585938 30.3125 12.609375 46.726563 0 3.441406-2.789062 6.230469-6.230468 6.230469zm0 0"/></g><path d="m255.617188 180.652344c-.039063-13.746094-11.171876-24.878906-24.917969-24.921875h-137.058594c-13.746094.042969-24.878906 11.175781-24.917969 24.921875" fill="#a7dbd8"/><path d="m143.480469 180.652344c0-.347656 0-.691406 0-1.035156-.007813-8.078126-1.136719-16.117188-3.363281-23.886719h-38.839844c3.835937 7.867187 6.460937 16.269531 7.789062 24.921875zm0 0" fill="#69d2e7"/><path d="m230.699219 155.730469h-14.816407l6.679688 24.921875h25.796875l-5.824219-21.808594c-3.621094-2.019531-7.691406-3.089844-11.835937-3.113281zm0 0" fill="#69d2e7"/><path d="m240.042969 157.601562 11.320312-42.25 50.460938-50.464843c4.867187-4.867188 4.867187-12.757813 0-17.621094-4.867188-4.867187-12.757813-4.867187-17.625 0l-52.878907 52.828125.042969.042969c-1.550781 1.523437-2.671875 3.429687-3.25 5.527343l-13.402343 50.066407" fill="#fa6900"/><path d="m99.871094 49.824219h-18.691406l11.265624 14.535156c20.03125 26.316406 23.453126 61.703125 8.832032 91.371094h38.839844c2.226562-7.765625 3.355468-15.804688 3.363281-23.882813 0-33.921875-15.40625-67.472656-43.609375-82.023437zm0 0" fill="#fa6900"/><path d="m128.527344 76.996094c-4.644532-7.550782-10.542969-14.257813-17.441406-19.828125-3.214844 1.175781-6.304688 2.667969-9.222657 4.453125zm0 0" fill="#ba4e00"/><path d="m110.460938 56.625c-2.625-2.027344-5.390626-3.863281-8.28125-5.492188-.367188 1.566407-.640626 3.15625-.820313 4.757813-.308594-2.011719-.742187-4.007813-1.296875-5.96875l-.191406-.097656h-18.691406l4.089843 5.277343 3.648438 2.105469c-.851563-.292969-1.730469-.488281-2.597657-.75l6.125 7.902344c.757813 1 1.445313 2.066406 2.167969 3.113281l6.03125-3.484375 1.246094.738281c.035156-1.042968-.0625-2.074218-.09375-3.117187zm0 0" fill="#ba4e00"/><path d="m143.222656 124.582031h-33.386718c-.320313 4.191407-.945313 8.355469-1.867188 12.460938h35.324219c.105469-1.71875.1875-3.445313.1875-5.195313 0-2.425781-.101563-4.847656-.257813-7.265625zm0 0" fill="#f38630"/><path d="m136.566406 93.433594h-29.667968c1.152343 4.082031 2.003906 8.25 2.546874 12.457031h30.957032c-1.019532-4.226563-2.300782-8.390625-3.835938-12.457031zm0 0" fill="#f38630"/><path d="m6.464844 110.046875c-1.320313-34.363281 25.46875-63.292969 59.832031-64.613281 12.542969-.480469 24.941406 2.839844 35.566406 9.53125zm0 0" fill="#69d2e7"/><path d="m100.183594 54.058594c-11.386719-6.699219-24.601563-9.621094-37.75-8.339844l27.722656 16.003906 10.511719-6.070312c-.125-.539063-.34375-1.058594-.484375-1.59375zm0 0" fill="#4c98a7"/><path d="m180.820312 98.902344c1.097657-28.441406-21.070312-52.382813-49.511718-53.480469-10.386719-.398437-20.648438 2.351563-29.445313 7.890625zm0 0" fill="#69d2e7"/><path d="m101.863281 53.3125 6.683594 3.863281 20.316406-11.714843c-9.550781.078124-18.894531 2.796874-27 7.851562zm0 0" fill="#4c98a7"/><path d="m27.863281 13.652344c22.589844-14.222656 52.429688-7.441406 66.652344 15.148437 5.191406 8.242188 7.769531 17.863281 7.398437 27.601563zm0 0" fill="#69d2e7"/><path d="m164.242188 17.253906c-19.269532-12.136718-44.730469-6.351562-56.863282 12.921875-4.429687 7.035157-6.632812 15.246094-6.3125 23.554688zm0 0" fill="#69d2e7"/><path d="m143.066406 334.4375c-19.558594-4.070312-37.277344-14.351562-50.515625-29.3125-2.296875-2.566406-6.234375-2.785156-8.800781-.488281-2.566406 2.292969-2.785156 6.234375-.488281 8.796875 15.015625 16.949218 35.101562 28.597656 57.269531 33.207031.410156.078125.828125.121094 1.246094.125 3.441406-.011719 6.21875-2.8125 6.207031-6.253906-.011719-2.941407-2.078125-5.476563-4.960937-6.074219zm0 0"/><path d="m306.230469 69.261719c7.300781-7.300781 7.300781-19.136719 0-26.433594-7.300781-7.300781-19.132813-7.300781-26.433594 0l-52.835937 52.859375c-.257813.25-.488282.527344-.691407.820312-1.949219 2.160157-3.363281 4.742188-4.128906 7.546876l-12.207031 45.445312h-61.96875c1.140625-5.8125 1.726562-11.722656 1.742187-17.648438 0-.296874 0-.625 0-.898437 0-.046875 0-.085937 0-.136719 0-.046875-.035156-.125-.042969-.191406-.207031-18.613281-5.96875-36.742188-16.539062-52.0625l44.582031 25.742188c2.976563 1.722656 6.789063.703124 8.511719-2.273438.507812-.882812.792969-1.875.832031-2.890625 1.199219-29.53125-20.179687-55.164063-49.449219-59.285156l29.757813-17.183594c2.980469-1.71875 4-5.527344 2.28125-8.507813-.507813-.878906-1.222656-1.621093-2.082031-2.164062-22.113282-13.953125-51.355469-7.339844-65.308594 14.773438-.296875.46875-.585938.945312-.867188 1.425781-14.582031-26.390625-47.796874-35.960938-74.183593-21.378907-.898438.496094-1.78125 1.015626-2.648438 1.5625-2.914062 1.828126-3.792969 5.671876-1.964843 8.585938.542968.859375 1.285156 1.578125 2.164062 2.082031l35.714844 20.617188c-35.386719 4.265625-61.585938 34.964843-60.230469 70.585937.125 3.4375 3.015625 6.125 6.457031 5.996094 1.015625-.035156 2.007813-.324219 2.890625-.832031l79.074219-45.621094c16.851562 23.148437 20.09375 53.519531 8.511719 79.703125h-3.527344c-14.796875.019531-27.546875 10.429688-30.527344 24.921875h-8.722656c-2.222656 0-4.277344 1.1875-5.386719 3.113281-36.238281 62.511719-14.941406 142.5625 47.570313 178.800782 62.511719 36.238281 142.5625 14.9375 178.800781-47.574219 23.523438-40.578125 23.523438-90.644531 0-131.226563-1.121094-1.933594-3.191406-3.125-5.429688-3.113281h-8.71875c-1.722656-8.285156-6.742187-15.507813-13.898437-20.015625l9.597656-35.847656zm-190.5 36.628906h17.257812c2.03125 6.054687 3.339844 12.328125 3.898438 18.691406h-20.820313c.1875-2.4375.417969-4.863281.417969-7.332031-.023437-3.796875-.277344-7.589844-.753906-11.359375zm57.9375-18.320313-58.386719-33.714843c23.792969-7.761719 49.367188 5.230469 57.128906 29.019531.503906 1.542969.925782 3.109375 1.257813 4.695312zm-48.878907-65.730468c7.734376-4.472656 16.886719-5.808594 25.574219-3.738282l-41.628906 24.015626c2.554687-8.566407 8.304687-15.828126 16.054687-20.277344zm-50.101562-3.738282c9.875 5.695313 17.007812 15.164063 19.757812 26.226563-.910156-.367187-1.871093-.691406-2.761718-1.019531l-50.28125-29.035156c11.140625-3.390626 23.1875-2.011719 33.269531 3.820312zm-34.003906 41.03125c13.761718-8.003906 30.296875-9.710937 45.398437-4.679687l2.125 1.246094-74.863281 43.191406c2.632812-16.707031 12.683594-31.324219 27.339844-39.757813zm58.800781 4.421876.285156-.167969c11.703125 7.46875 21.292969 17.8125 27.855469 30.046875h-14.222656c-2.828125-10.71875-7.546875-20.847656-13.9375-29.902344zm14.820313 73.488281h22.765624c-.28125 4.191406-.890624 8.359375-1.820312 12.457031h-24.566406c1.5-4.0625 2.710937-8.222656 3.621094-12.457031zm79.015624 37.378906c-3.441406.003906-6.226562 2.796875-6.226562 6.234375.003906 1.09375.289062 2.164062.835938 3.109375 7.136718 12.304687 10.90625 26.269531 10.929687 40.496094 0 3.441406 2.789063 6.230469 6.226563 6.230469 3.441406 0 6.230468-2.792969 6.230468-6.230469-.011718-12.871094-2.691406-25.597657-7.867187-37.378907h19.179687c17.375 31.941407 18.984375 70.125 4.363282 103.414063-1.375 3.152344.058593 6.820313 3.207031 8.199219.785156.347656 1.632812.523437 2.492187.523437 2.476563 0 4.722656-1.464843 5.714844-3.738281 15.226562-34.667969 14.574219-74.253906-1.789062-108.398438h29.691406c31.074218 57.511719 9.644531 129.328126-47.871094 160.40625-57.515625 31.074219-129.332031 9.644532-160.40625-47.871093-18.972656-35.113281-18.972656-77.421875 0-112.535157h23.460938c-8.371094 17.507813-12.734376 36.660157-12.769532 56.066407 0 3.441406 2.789063 6.230469 6.226563 6.230469 3.441406 0 6.230469-2.789063 6.230469-6.230469.054687-19.585938 4.980468-38.855469 14.328124-56.066407h28.382813c-4.136719 9.863282-6.273437 20.453126-6.285156 31.148438 0 3.441406 2.792969 6.230469 6.230469 6.230469 3.441406 0 6.230468-2.789063 6.230468-6.230469.058594-10.847656 2.699219-21.523438 7.707032-31.148438h11.9375c3.441406 0 6.230468-2.792968 6.230468-6.230468 0-3.441406-2.792968-6.230469-6.230468-6.230469h-73.613282c2.628906-7.441406 9.652344-12.425781 17.542969-12.460937h137.058594c7.890625.035156 14.914062 5.019531 17.542969 12.460937zm37.378907-24.921875h-7.871094l11.320313-42.226562c.292968-1.035157.851562-1.972657 1.625-2.722657.226562-.214843.4375-.449219.625-.695312l52.238281-52.21875c2.433593-2.433594 6.378906-2.433594 8.8125 0 2.429687 2.433593 2.429687 6.378906-.003907 8.8125l-50.460937 50.464843c-.773437.773438-1.332031 1.734376-1.613281 2.789063l-9.71875 36.277344c-1.636719-.292969-3.292969-.453125-4.953125-.480469zm0 0"/></svg>