
<svg xmlns="http://www.w3.org/2000/svg" version="1.1" xmlns:xlink="http://www.w3.org/1999/xlink" preserveAspectRatio="none" x="0px" y="0px" width="300px" height="350px" viewBox="0 0 300 350">
<defs>
<g id="Layer0_0_MEMBER_0_FILL">
<path fill="#82632D" stroke="none" d="
M -1086.15 -318.7
L -1086.15 -312.7 -1082.5 -314.8 -1086.15 -318.7
M -1029.05 -318.7
L -1032.45 -315.05 -1029.05 -313.05 -1029.05 -318.7 Z"/>

<path fill="#C48D35" stroke="none" d="
M -1082.5 -310.35
L -1082.5 -314.8 -1086.15 -312.7 -1090.1 -310.35 -1082.5 -310.35
M -1029.05 -313.05
L -1032.45 -315.05 -1032.45 -310.35 -1024.5 -310.35 -1029.05 -313.05 Z"/>

<path fill="#FFBE5B" stroke="none" d="
M -1024.5 -310.35
L -1032.45 -310.35 -1082.5 -310.35 -1090.1 -310.35 -1090.1 -244.75 -1024.5 -244.75 -1024.5 -310.35 Z"/>

<path fill="#AC781A" stroke="none" d="
M -1032.45 -315.05
L -1029.05 -318.7 -1086.15 -318.7 -1082.5 -314.8 -1082.5 -310.35 -1032.45 -310.35 -1032.45 -315.05 Z"/>
</g>

<g id="Layer0_0_MEMBER_0_MEMBER_0_FILL">
<path fill="#000000" fill-opacity="0.2980392156862745" stroke="none" d="
M -1037.5 -299.7
Q -1036.25 -300.9 -1036.25 -302.65 -1036.25 -304.4 -1037.5 -305.65 -1038.7 -306.85 -1040.45 -306.85 -1042.2 -306.85 -1043.45 -305.65 -1044.65 -304.4 -1044.65 -302.65 -1044.65 -300.9 -1043.45 -299.7 -1042.2 -298.45 -1040.45 -298.45 -1038.7 -298.45 -1037.5 -299.7 Z"/>
</g>

<g id="Layer0_0_MEMBER_0_MEMBER_1_FILL">
<path fill="#000000" fill-opacity="0.2980392156862745" stroke="none" d="
M -1075.85 -299.7
Q -1074.6 -298.45 -1072.85 -298.45 -1071.1 -298.45 -1069.9 -299.7 -1068.65 -300.9 -1068.65 -302.65 -1068.65 -304.4 -1069.9 -305.65 -1071.1 -306.85 -1072.85 -306.85 -1074.6 -306.85 -1075.85 -305.65 -1077.05 -304.4 -1077.05 -302.65 -1077.05 -300.9 -1075.85 -299.7 Z"/>
</g>

<g id="Layer0_0_MEMBER_0_MEMBER_2_FILL">
<path fill="#FFFFFF" stroke="none" d="
M -1041.8 -303.5
Q -1042.3 -302.95 -1042.3 -302.3
L -1042.3 -283.95
Q -1043.246875 -272.29765625 -1058.9 -273.05 -1070.439453125 -273.20859375 -1071.2 -283.95
L -1071.2 -302.3
Q -1071.2171875 -302.9671875 -1071.75 -303.5 -1072.25 -304 -1072.95 -304 -1073.65 -304 -1074.2 -303.5 -1074.684375 -302.9671875 -1074.7 -302.3
L -1074.7 -283.95
Q -1074.363671875 -274.098046875 -1065.35 -270.3 -1054.8689453125 -267.2517578125 -1045.9 -271.85 -1038.9755859375 -275.5041015625 -1038.8 -283.95
L -1038.8 -302.3
Q -1038.8 -302.95 -1039.35 -303.5 -1039.85 -304 -1040.55 -304 -1041.25 -304 -1041.8 -303.5 Z"/>
</g>

<g id="Layer0_0_MEMBER_1_STROKES_1_FILL">
<path fill="#000000" stroke="none" d="
M -1065.3 -318.95
Q -1065.324609375 -319.12265625 -1065.5 -319.25 -1065.6771484375 -319.3287109375 -1065.9 -319.3 -1066.072265625 -319.2255859375 -1066.2 -319.05 -1066.278515625 -318.8724609375 -1066.25 -318.7 -1065.8751953125 -317.3251953125 -1065.5 -315.95 -1065.4244140625 -315.7265625 -1065.25 -315.65 -1065.07109375 -315.5208984375 -1064.9 -315.6 -1064.6763671875 -315.625390625 -1064.6 -315.8 -1064.47109375 -315.9787109375 -1064.55 -316.2 -1064.9248046875 -317.575 -1065.3 -318.95
M -1062.75 -310.2
Q -1062.6583984375 -310.37109375 -1062.75 -310.6 -1063.225 -312.0123046875 -1063.7 -313.4 -1063.73984375 -313.6009765625 -1063.95 -313.7 -1064.1064453125 -313.791796875 -1064.3 -313.75 -1064.50078125 -313.6603515625 -1064.6 -313.5 -1064.6916015625 -313.2931640625 -1064.65 -313.1 -1064.1751953125 -311.6875 -1063.7 -310.25 -1063.608984375 -310.03515625 -1063.45 -309.95 -1063.229296875 -309.8580078125 -1063.05 -309.95 -1062.835546875 -309.9908203125 -1062.75 -310.2
M -1087.95 -344.7
Q -1088.126953125 -344.7787109375 -1088.35 -344.75 -1088.5216796875 -344.676171875 -1088.65 -344.5 -1088.7287109375 -344.3236328125 -1088.7 -344.15 -1088.6255859375 -343.9283203125 -1088.45 -343.85 -1088.012109375 -343.566015625 -1087.6 -343.3 -1086.9748046875 -342.5224609375 -1086.4 -341.85 -1086.2474609375 -341.6669921875 -1086.05 -341.65 -1085.8384765625 -341.6369140625 -1085.7 -341.8 -1085.516796875 -341.9021484375 -1085.5 -342.1 -1085.4873046875 -342.311328125 -1085.65 -342.5 -1086.2126953125 -343.162890625 -1086.8 -343.9 -1086.85625 -343.9572265625 -1086.95 -344 -1087.4375 -344.36328125 -1087.95 -344.7
M -1080.3 -335.65
Q -1080.2841796875 -335.4171875 -1080.15 -335.3 -1079.0251953125 -334.2748046875 -1077.9 -333.35 -1077.71015625 -333.187109375 -1077.5 -333.2 -1077.3009765625 -333.2173828125 -1077.2 -333.4 -1077.0365234375 -333.5396484375 -1077.05 -333.75 -1077.067578125 -333.9486328125 -1077.25 -334.1 -1078.3748046875 -335.0251953125 -1079.5 -336.05 -1079.6236328125 -336.16171875 -1079.85 -336.15 -1080.033203125 -336.1341796875 -1080.2 -336 -1080.312109375 -335.8263671875 -1080.3 -335.65
M -1082.35 -337.4
Q -1082.2052734375 -337.2517578125 -1082 -337.25 -1081.7947265625 -337.2517578125 -1081.65 -337.4 -1081.5017578125 -337.5447265625 -1081.5 -337.75 -1081.5017578125 -337.9552734375 -1081.65 -338.1 -1082.6873046875 -339.1376953125 -1083.7 -340.25 -1083.8171875 -340.3841796875 -1084.05 -340.4 -1084.2263671875 -340.412109375 -1084.4 -340.3 -1084.5341796875 -340.133203125 -1084.55 -339.95 -1084.56171875 -339.7236328125 -1084.45 -339.6 -1083.4126953125 -338.4623046875 -1082.35 -337.4
M -1054.5 -326.95
Q -1054.7 -327.0419921875 -1054.9 -327 -1056.1904296875 -326.4431640625 -1057.65 -326.2 -1057.828515625 -326.1671875 -1057.95 -326 -1058.0775390625 -325.830078125 -1058.05 -325.65 -1058.0173828125 -325.4212890625 -1057.85 -325.3 -1057.6802734375 -325.17265625 -1057.5 -325.2 -1055.909765625 -325.4568359375 -1054.5 -326.05 -1054.319921875 -326.10625 -1054.25 -326.3 -1054.1580078125 -326.5 -1054.25 -326.7 -1054.30625 -326.880078125 -1054.5 -326.95
M -1067.2 -325.3
Q -1067.379296875 -325.2544921875 -1067.5 -325.1 -1067.62734375 -324.9166015625 -1067.6 -324.75 -1067.350390625 -323.2630859375 -1067 -321.7 -1066.9521484375 -321.492578125 -1066.8 -321.4 -1066.6005859375 -321.2591796875 -1066.4 -321.3 -1066.1923828125 -321.34765625 -1066.1 -321.55 -1065.959375 -321.6990234375 -1066 -321.9 -1066.349609375 -323.4373046875 -1066.6 -324.9 -1066.6458984375 -325.0796875 -1066.85 -325.2 -1066.983203125 -325.3275390625 -1067.2 -325.3
M -1064 -325.75
Q -1063.857421875 -325.5478515625 -1063.65 -325.5 -1062.0609375 -325.1451171875 -1060.6 -325.1 -1060.359765625 -325.08828125 -1060.2 -325.25 -1060.052734375 -325.3677734375 -1060.05 -325.6 -1060.03828125 -325.78984375 -1060.2 -325.95 -1060.31796875 -326.097265625 -1060.55 -326.1 -1061.9390625 -326.155078125 -1063.45 -326.5 -1063.6509765625 -326.540625 -1063.85 -326.45 -1063.98984375 -326.3076171875 -1064.05 -326.1 -1064.0783203125 -325.8994140625 -1064 -325.75
M -1073.05 -329.75
Q -1072.85078125 -329.6095703125 -1072.65 -329.65 -1072.4427734375 -329.6974609375 -1072.35 -329.9 -1072.209375 -330.0490234375 -1072.25 -330.25 -1072.2978515625 -330.4572265625 -1072.5 -330.6 -1073.712109375 -331.3630859375 -1074.9 -332.25 -1075.06875 -332.3767578125 -1075.3 -332.35 -1075.47734375 -332.3181640625 -1075.6 -332.15 -1075.726953125 -331.981640625 -1075.7 -331.8 -1075.66796875 -331.5728515625 -1075.5 -331.45 -1074.2876953125 -330.5369140625 -1073.05 -329.75
M -1067.45 -330.1
Q -1067.480859375 -330.312890625 -1067.65 -330.45 -1067.803515625 -330.5763671875 -1068 -330.55 -1068.2126953125 -330.5193359375 -1068.35 -330.35 -1068.476171875 -330.196484375 -1068.45 -330 -1068.3486328125 -329.075390625 -1068.2 -328.1 -1069.086328125 -328.530859375 -1069.95 -329.05 -1070.128515625 -329.12890625 -1070.35 -329.1 -1070.5228515625 -329.025390625 -1070.65 -328.85 -1070.72890625 -328.6720703125 -1070.7 -328.5 -1070.6248046875 -328.2771484375 -1070.45 -328.2 -1069.1376953125 -327.4119140625 -1067.8 -326.75 -1067.7375 -326.7353515625 -1067.7 -326.75 -1067.6255859375 -326.699609375 -1067.55 -326.7 -1067.174609375 -326.55 -1066.8 -326.45 -1066.6072265625 -326.358203125 -1066.45 -326.45 -1066.240234375 -326.5486328125 -1066.2 -326.75 -1066.108203125 -326.9427734375 -1066.2 -327.15 -1066.298828125 -327.309765625 -1066.5 -327.4 -1066.7998046875 -327.475 -1067.1 -327.6 -1067.31484375 -328.8974609375 -1067.45 -330.1
M -1068.3 -336.4
Q -1068.489453125 -336.4119140625 -1068.65 -336.3 -1068.7970703125 -336.1328125 -1068.8 -335.95 -1068.8515625 -334.5013671875 -1068.75 -332.95 -1068.73359375 -332.7158203125 -1068.6 -332.6 -1068.425 -332.4373046875 -1068.25 -332.45 -1068.015625 -332.4662109375 -1067.9 -332.65 -1067.7375 -332.7748046875 -1067.75 -333 -1067.8486328125 -334.4986328125 -1067.8 -335.9 -1067.78828125 -336.0892578125 -1067.95 -336.25 -1068.067578125 -336.397265625 -1068.3 -336.4
M -1067.6 -342.2
Q -1067.759765625 -342.101171875 -1067.85 -341.9 -1068.2904296875 -340.516015625 -1068.55 -338.9 -1068.5771484375 -338.6693359375 -1068.45 -338.5 -1068.328125 -338.3322265625 -1068.15 -338.3 -1067.9193359375 -338.27265625 -1067.75 -338.4 -1067.582421875 -338.5216796875 -1067.55 -338.75 -1067.3095703125 -340.2841796875 -1066.9 -341.6 -1066.808203125 -341.79296875 -1066.9 -342 -1066.9986328125 -342.1599609375 -1067.2 -342.25 -1067.3927734375 -342.291796875 -1067.6 -342.2
M -1106.3 -340.7
Q -1106.1376953125 -340.8248046875 -1106.15 -341.05 -1106.1658203125 -341.23359375 -1106.35 -341.4 -1106.47421875 -341.5123046875 -1106.7 -341.5 -1106.88359375 -341.4833984375 -1107.05 -341.35 -1107.9380859375 -340.3146484375 -1108.8 -339.1 -1108.9271484375 -338.9294921875 -1108.9 -338.75 -1108.8671875 -338.5208984375 -1108.7 -338.4 -1108.5296875 -338.27265625 -1108.35 -338.3 -1108.1212890625 -338.3330078125 -1108 -338.5 -1107.1619140625 -339.685546875 -1106.3 -340.7
M -1102 -345.5
Q -1102.173046875 -345.5287109375 -1102.35 -345.45 -1103.6384765625 -344.6544921875 -1104.9 -343.6 -1105.033203125 -343.434375 -1105.05 -343.25 -1105.0626953125 -343.0251953125 -1104.95 -342.9 -1104.7845703125 -342.71640625 -1104.6 -342.7 -1104.37578125 -342.6875 -1104.25 -342.85 -1103.06171875 -343.8453125 -1101.85 -344.6 -1101.6744140625 -344.6783203125 -1101.65 -344.9 -1101.5712890625 -345.0736328125 -1101.7 -345.25 -1101.7783203125 -345.426171875 -1102 -345.5
M -1099.5 -346.8
Q -1099.6998046875 -346.7109375 -1099.8 -346.55 -1099.891796875 -346.3443359375 -1099.85 -346.15 -1099.7609375 -345.95 -1099.6 -345.85 -1099.3947265625 -345.7583984375 -1099.2 -345.85 -1097.811328125 -346.253515625 -1096.4 -346.3 -1096.16796875 -346.3029296875 -1096.05 -346.45 -1095.88828125 -346.61015625 -1095.9 -346.85 -1095.902734375 -347.0322265625 -1096.05 -347.2 -1096.2099609375 -347.31171875 -1096.45 -347.3 -1097.988671875 -347.246484375 -1099.5 -346.8
M -1093.8 -346.95
Q -1093.95234375 -346.8076171875 -1094 -346.6 -1094.0408203125 -346.3994140625 -1093.95 -346.25 -1093.8080078125 -346.0478515625 -1093.6 -346 -1092.2994140625 -345.719921875 -1090.95 -345.15 -1090.7623046875 -345.0580078125 -1090.6 -345.15 -1090.3826171875 -345.205859375 -1090.3 -345.4 -1090.2078125 -345.587109375 -1090.3 -345.8 -1090.3564453125 -345.9673828125 -1090.55 -346.05 -1092.00078125 -346.680078125 -1093.4 -347 -1093.6001953125 -347.040625 -1093.8 -346.95
M -1061.85 -347.75
Q -1061.6576171875 -347.6583984375 -1061.5 -347.75 -1060.1375 -348.413671875 -1058.8 -348.65 -1058.6078125 -348.6958984375 -1058.5 -348.9 -1058.372265625 -349.04609375 -1058.4 -349.25 -1058.445703125 -349.4421875 -1058.65 -349.55 -1058.79609375 -349.6775390625 -1059 -349.65 -1060.4626953125 -349.386328125 -1061.95 -348.65 -1062.109765625 -348.5509765625 -1062.2 -348.35 -1062.2419921875 -348.157421875 -1062.15 -348 -1062.0513671875 -347.790234375 -1061.85 -347.75
M -1064.2 -347.1
Q -1064.4052734375 -347.0982421875 -1064.55 -346.95 -1064.6375 -346.8625 -1064.75 -346.8
L -1064.75 -346.75
Q -1065.794140625 -345.8576171875 -1066.55 -344.6 -1066.6283203125 -344.4228515625 -1066.6 -344.25 -1066.52578125 -344.027734375 -1066.35 -343.95 -1066.1728515625 -343.8212890625 -1066 -343.9 -1065.778125 -343.9244140625 -1065.7 -344.1 -1065.015234375 -345.2263671875 -1064.1 -346.05
L -1064.05 -346.05
Q -1063.95 -346.15 -1063.85 -346.25 -1063.7017578125 -346.3947265625 -1063.7 -346.6 -1063.7017578125 -346.8052734375 -1063.85 -346.95 -1063.9947265625 -347.0982421875 -1064.2 -347.1
M -1050.5 -330.55
Q -1051.329296875 -329.4748046875 -1052.35 -328.35
L -1052.4 -328.35
Q -1052.4125 -328.2875 -1052.45 -328.25 -1052.5982421875 -328.1052734375 -1052.6 -327.9 -1052.5982421875 -327.6947265625 -1052.45 -327.55 -1052.3052734375 -327.4017578125 -1052.1 -327.4 -1051.8947265625 -327.4017578125 -1051.75 -327.55 -1051.7 -327.6 -1051.65 -327.65
L -1051.65 -327.7
Q -1050.5611328125 -328.837890625 -1049.7 -329.95 -1049.5734375 -330.1177734375 -1049.6 -330.35 -1049.63125 -330.5263671875 -1049.8 -330.65 -1049.9673828125 -330.7767578125 -1050.2 -330.75 -1050.3763671875 -330.718359375 -1050.5 -330.55
M -1047.45 -336.1
Q -1047.6244140625 -335.9734375 -1047.7 -335.8 -1048.0701171875 -334.43671875 -1048.85 -333.05 -1048.94140625 -332.8578125 -1048.9 -332.65 -1048.8244140625 -332.4634765625 -1048.65 -332.4 -1048.458203125 -332.2708984375 -1048.25 -332.35 -1048.051171875 -332.3759765625 -1047.95 -332.55 -1047.1298828125 -334.06328125 -1046.75 -335.55 -1046.67109375 -335.7212890625 -1046.8 -335.9 -1046.8763671875 -336.074609375 -1047.1 -336.15 -1047.27109375 -336.17890625 -1047.45 -336.1
M -1047.7 -341.9
Q -1047.791796875 -341.67890625 -1047.75 -341.5 -1047.2513671875 -340.1111328125 -1047.25 -338.7 -1047.2482421875 -338.4947265625 -1047.1 -338.35 -1046.9552734375 -338.2017578125 -1046.75 -338.2 -1046.5447265625 -338.2017578125 -1046.4 -338.35 -1046.2517578125 -338.4947265625 -1046.25 -338.7 -1046.2484375 -340.2888671875 -1046.8 -341.85 -1046.841015625 -342.01484375 -1047.05 -342.1 -1047.220703125 -342.1919921875 -1047.45 -342.15 -1047.6146484375 -342.0591796875 -1047.7 -341.9
M -1050.65 -346.95
Q -1050.8626953125 -346.9193359375 -1051 -346.75 -1051.1263671875 -346.5966796875 -1051.1 -346.4 -1051.0689453125 -346.1875 -1050.9 -346.05 -1050.4388671875 -345.6828125 -1050 -345.3 -1049.9513671875 -345.2486328125 -1049.95 -345.25 -1049.4201171875 -344.623046875 -1049 -344.05 -1048.8923828125 -343.846484375 -1048.7 -343.8 -1048.4962890625 -343.772265625 -1048.35 -343.9 -1048.1458984375 -344.0076171875 -1048.1 -344.2 -1048.0724609375 -344.403125 -1048.2 -344.6 -1048.6611328125 -345.25 -1049.25 -345.95 -1049.2490234375 -345.951171875 -1049.3 -346 -1049.7875 -346.4380859375 -1050.3 -346.85 -1050.45390625 -346.976171875 -1050.65 -346.95
M -1052.6 -348.3
Q -1052.6392578125 -348.499609375 -1052.85 -348.6 -1054.2986328125 -349.388671875 -1055.85 -349.65 -1056.0166015625 -349.67734375 -1056.2 -349.55 -1056.3544921875 -349.429296875 -1056.4 -349.25 -1056.4275390625 -349.033203125 -1056.3 -348.9 -1056.1796875 -348.6958984375 -1056 -348.65 -1054.6015625 -348.411328125 -1053.3 -347.7 -1053.0943359375 -347.60859375 -1052.9 -347.7 -1052.7001953125 -347.738671875 -1052.6 -347.95 -1052.5083984375 -348.1052734375 -1052.6 -348.3 Z"/>
</g>

<g id="Layer0_0_MEMBER_1_MEMBER_0_FILL">
<path fill="#333333" stroke="none" d="
M -1117.9 -325.45
Q -1117.85 -326.15 -1117.85 -326.9 -1117.85 -330.3 -1119.25 -332.7 -1120.65 -335.1 -1122.65 -335.1 -1124.65 -335.1 -1126.05 -332.7 -1127.45 -330.3 -1127.45 -326.9 -1127.45 -325.3 -1127.1 -323.9 -1129.6 -322.4 -1129.6 -320.4 -1129.6 -318.25 -1126.8 -316.7 -1126.65 -316.65 -1126.5 -316.55 -1127.45 -314.45 -1127.45 -311.7 -1127.45 -308.3 -1126.05 -305.9 -1124.65 -303.5 -1122.65 -303.5 -1120.65 -303.5 -1119.25 -305.9 -1117.85 -308.3 -1117.85 -311.7 -1117.85 -313.65 -1118.3 -315.25 -1115.4 -315.55 -1113.2 -316.7 -1110.4 -318.25 -1110.4 -320.4 -1110.4 -322.55 -1113.2 -324.1 -1115.25 -325.2 -1117.9 -325.45 Z"/>
</g>
</defs>

<g id="Layer_1">
<g transform="matrix( 3, 0, 0, 3, 3354.55,1066.5) ">
<use xlink:href="#Layer0_0_MEMBER_0_FILL"/>
</g>

<g transform="matrix( 2.39996337890625, 0, 0, 2.39996337890625, 2730.25,884.85) ">
<use xlink:href="#Layer0_0_MEMBER_0_MEMBER_0_FILL"/>
</g>

<g transform="matrix( 2.39996337890625, 0, 0, 2.39996337890625, 2710.75,884.85) ">
<use xlink:href="#Layer0_0_MEMBER_0_MEMBER_1_FILL"/>
</g>

<g transform="matrix( 3, 0, 0, 3, 3354.55,1066.5) ">
<use xlink:href="#Layer0_0_MEMBER_0_MEMBER_2_FILL"/>
</g>

<g transform="matrix( 3, 0, 0, 3, 3361.75,1065.6) ">
<use xlink:href="#Layer0_0_MEMBER_1_STROKES_1_FILL"/>
</g>

<g transform="matrix( 0.511871337890625, -0.511871337890625, 0.511871337890625, 0.511871337890625, 765.85,-354.45) ">
<use xlink:href="#Layer0_0_MEMBER_1_MEMBER_0_FILL"/>
</g>
</g>
</svg>
