<svg height="480pt" viewBox="-88 0 480 480.03273" width="480pt" xmlns="http://www.w3.org/2000/svg"><path d="m88.015625 160.03125h208v296c0 8.839844-7.164063 16-16 16h-176c-8.835937 0-16-7.160156-16-16zm0 0" fill="#f89c8d"/><path d="m296.015625 184.03125v-24h-208v296c0 8.839844 7.164063 16 16 16h176c8.835937 0 16-7.160156 16-16v-32h-40c-61.855469 0-112-50.144531-112-112v-80c0-26.507812 21.492187-48 48-48zm0 0" fill="#f8664f"/><path d="m192.015625 56.03125-104 104h208zm0 0" fill="#f89c8d"/><path d="m94.105469 97.925781 33.941406-33.941406 28.285156 28.285156-33.941406 33.941407zm0 0" fill="#57b7eb"/><path d="m88.015625 248.03125h208v144h-208zm0 0" fill="#f9e109"/><path d="m144.015625 312.03125v-64h-56v144h89.679687c-21.523437-21.054688-33.664062-49.890625-33.679687-80zm0 0" fill="#fcbc04"/><path d="m208.015625 280.03125h64v32h-64zm0 0" fill="#57b7eb"/><path d="m8.015625 296.03125h112v160c0 8.839844-7.164063 16-16 16h-80c-8.835937 0-16-7.160156-16-16zm0 0" fill="#aae1f9"/><path d="m96.015625 448.03125c-35.34375 0-64-28.652344-64-64v-88h-24v160c0 8.839844 7.164063 16 16 16h80c8.835937 0 16-7.160156 16-16v-8zm0 0" fill="#57b7eb"/><path d="m64.015625 344.03125c-18.058594-5.90625-37.007813-8.613281-56-8v120c0 8.839844 7.164063 16 16 16h80c8.835937 0 16-7.160156 16-16v-104c-18.988281.613281-37.941406-2.09375-56-8zm0 0" fill="#57b7eb"/><path d="m96.015625 448.03125c-35.34375 0-64-28.652344-64-64v-47.039062c-7.96875-.878907-15.988281-1.199219-24-.960938v120c0 8.839844 7.164063 16 16 16h80c8.835937 0 16-7.160156 16-16v-8zm0 0" fill="#4891d3"/><path d="m160.578125 110.832031c19.589844-9.242187 42.53125-7.949219 60.957031 3.441407l73.839844 45.757812h.640625l-104-104-75.519531 75.519531zm0 0" fill="#f8664f"/><path d="m94.085938 97.980469 16.007812-16.011719 28.285156 28.285156-16.011718 16.011719zm0 0" fill="#4891d3"/><g fill="#39519d"><path d="m303.375 156.992188c-.378906-.980469-.949219-1.878907-1.679688-2.640626l-98.398437-98.320312 42.398437-42.320312c3.136719-3.136719 3.136719-8.222657 0-11.359376-3.136718-3.136718-8.222656-3.136718-11.359374 0l-78.320313 78.402344-22.320313-22.402344c-1.5-1.511718-3.546874-2.363281-5.679687-2.363281s-4.175781.851563-5.679687 2.363281l-33.917969 34c-3.101563 3.121094-3.101563 8.160157 0 11.28125l22.320312 22.320313-28.402343 28.398437c-.726563.761719-1.296876 1.660157-1.679688 2.640626-.410156.960937-.628906 1.996093-.640625 3.039062v104c0 4.417969 3.582031 8 8 8s8-3.582031 8-8v-8h192v128h-136c-4.417969 0-8 3.582031-8 8s3.582031 8 8 8h136v56c0 4.417969-3.582031 8-8 8h-128c-4.417969 0-8 3.582031-8 8s3.582031 8 8 8h128c13.253906 0 24-10.742188 24-24v-296c-.011719-1.042969-.230469-2.078125-.640625-3.039062zm-198-59.039063 22.640625-22.640625 16.722656 16.71875-22.640625 22.640625zm-9.359375 142.078125v-72h160c4.417969 0 8-3.582031 8-8s-3.582031-8-8-8h-148.71875l84.71875-84.71875 96 96v76.71875zm0 0"/><path d="m264.015625 288.03125c4.417969 0 8-3.582031 8-8s-3.582031-8-8-8h-56c-4.417969 0-8 3.582031-8 8v32c0 4.417969 3.582031 8 8 8h56c4.417969 0 8-3.582031 8-8s-3.582031-8-8-8h-48v-16zm0 0"/><path d="m152.015625 360.03125h112c4.417969 0 8-3.582031 8-8s-3.582031-8-8-8h-112c-4.417969 0-8 3.582031-8 8s3.582031 8 8 8zm0 0"/><path d="m152.015625 288.03125h24c4.417969 0 8-3.582031 8-8s-3.582031-8-8-8h-24c-4.417969 0-8 3.582031-8 8s3.582031 8 8 8zm0 0"/><path d="m152.015625 320.03125h24c4.417969 0 8-3.582031 8-8s-3.582031-8-8-8h-24c-4.417969 0-8 3.582031-8 8s3.582031 8 8 8zm0 0"/><path d="m120.015625 288.03125h-112c-4.417969 0-8 3.582031-8 8v88c0 4.417969 3.582031 8 8 8s8-3.582031 8-8v-40c15.464844.347656 30.789063 3.046875 45.441406 8 16.363281 5.152344 33.402344 7.847656 50.558594 8v96c0 4.417969-3.582031 8-8 8h-80c-4.417969 0-8-3.582031-8-8v-40c0-4.417969-3.582031-8-8-8s-8 3.582031-8 8v40c0 13.257812 10.746094 24 24 24h80c13.253906 0 24-10.742188 24-24v-160c0-4.417969-3.582031-8-8-8zm-53.4375 48c-16.359375-5.183594-33.402344-7.878906-50.5625-8v-24h96v40c-15.445313-.214844-30.765625-2.777344-45.4375-7.597656zm0 0"/></g></svg>