
<svg xmlns="http://www.w3.org/2000/svg" version="1.1" xmlns:xlink="http://www.w3.org/1999/xlink" preserveAspectRatio="none" x="0px" y="0px" width="65px" height="90px" viewBox="0 0 65 90">
<defs>
<g id="Layer0_0_MEMBER_0_MEMBER_0_FILL">
<path fill="#1BBC9D" stroke="none" d="
M 190 217.85
Q 192.2 212.65 186.85 212.1 185.3 211.85 183.95 211.85 178.2 211.9 175.1 216.4 173.85 219 175.1 220.65 176.95 221.75 178.25 220.65 179.75 218.85 180.2 221.7 179.05 224.3 176.5 223.95 175.65 223.8 174.65 223.35
L 173.35 221.55
Q 172.15 218.1 169.25 223.05 166 230.05 166.85 235.05 167.35 238.05 169.25 240.3 172.5 243.95 177.9 245.45 183.5 246.25 182.65 240.25
L 183.1 234.5
Q 183.9 228.05 177.4 230.85 173.05 230.65 175.35 227.85
L 178.8 227.85
Q 184.8 228.5 189.05 219.95 189.55 218.95 190 217.85
M 199.1 209.05
Q 200.35 207.65 198.75 206.45 194.65 204.45 187.8 206.6 184.6 208.35 183.95 210.25
L 192.9 210.6
Q 195.4 210.75 196.95 210.35 197.5 210.2 197.95 209.95 198.65 209.45 199.1 209.05
M 217.3 220.2
Q 216.85 219.4 216.35 218.55 215.85 217.15 217.25 217.75 219.95 219.95 219.8 227.15 219.8 227.65 219.75 228.2 219.75 228.45 219.75 228.8 219.5 229.55 219.3 230.3 218.45 233.45 218.75 236.25 218.95 237.9 219.6 239.45 221.55 242.45 223.6 242 225.7 241.45 227.9 237.45 230.25 232.45 228 225.6 225.85 221.05 225.8 224.65 225.75 228.2 223.9 228.65 222.55 228.9 222.35 228.25 222.35 228.2 222.35 228.05 222.35 227.9 222.35 227.7 225.35 225.05 225.25 220.75 225.3 212.45 215.9 208.05 205.75 204.55 200.1 210.05 199.55 210.6 199 211.2 207.95 213.85 213.1 222.2 213.75 224.05 212.05 223 212.65 223.2 207.75 218.2 202.8 213.15 199 212.7 198.15 212.65 197.35 212.75 194.75 213.2 192.8 216.1 191.2 218.15 190.25 220.5 189.3 222.85 188.95 225.5 188.45 228.2 191.6 228.85 192.65 229.05 194.15 229 196.15 229.25 197.75 230.45 199.25 231.5 200.35 233.4 201.25 235.8 200.45 237.25 199.4 239.2 195.55 239.65 193.5 238.5 194.95 237.2 199.9 237.25 197.65 234.25 195.75 232.15 192.9 230.95 191.95 230.6 191.15 230.45 186.75 229.55 185.35 234.35 184 237.45 183.95 239.95 183.9 244.05 187.25 246.45 190.35 247.25 194.35 247.25 197.15 247.25 202.2 246.7 204.15 246.5 204.95 245.3 205.75 244 205.45 241.15 205.6 240.8 205.75 240.6 206.3 240 207.15 240.7 208.1 246.45 212.75 246.25 213.55 246.2 214.15 246.05 218.65 244.65 218.1 237.8 218.1 237 218 236.3 217.6 233.6 215.55 232.75 213.95 232.15 211.4 232.6 208.95 232.45 205.8 229.2
L 201.55 225.75
Q 201.1 224.05 202.95 224.45 212.65 232.15 216.55 229.5 217.85 228.15 218.3 226.6 219.1 223.75 217.3 220.2 Z"/>

<path fill="#E84C3D" stroke="none" d="
M 172.05 250
L 172.05 250.05 173.05 249.2 172.05 250 Z"/>

<path fill="#16A086" stroke="none" d="
M 225.6 246.05
Q 225.2 246.15 224.8 246.25 220.8 247.35 216.85 248.1 214.95 248.45 213.15 248.8 195.1 251.7 177.35 248.45 176 248.15 174.7 247.85 172.15 247.35 169.6 246.65 170.8 248.35 172.05 250
L 173.05 249.2 172.05 250.05
Q 184.1 265.95 198.35 275.85 217.55 263.4 225.6 246.05 Z"/>
</g>

<g id="Layer0_0_MEMBER_0_MEMBER_1_FILL">
<path fill="#DDECE7" stroke="none" d="
M 173.55 290.5
Q 173.55 292.05 180.65 293.05 187.8 294.15 197.9 294.15 207.95 294.15 215.15 293.05 222.25 292.05 222.25 290.5 222.25 289.05 215.15 287.95 207.95 286.85 197.9 286.85 187.8 286.85 180.65 287.95 173.55 289.05 173.55 290.5 Z"/>
</g>
</defs>

<g id="Layer_1">
<g transform="matrix( 1, 0, 0, 1, -165.35,-204.8) ">
<use xlink:href="#Layer0_0_MEMBER_0_MEMBER_0_FILL"/>
</g>

<g transform="matrix( 1, 0, 0, 1, -165.35,-204.8) ">
<use xlink:href="#Layer0_0_MEMBER_0_MEMBER_1_FILL"/>
</g>
</g>
</svg>
