
<svg xmlns="http://www.w3.org/2000/svg" version="1.1" xmlns:xlink="http://www.w3.org/1999/xlink" preserveAspectRatio="none" x="0px" y="0px" width="50px" height="50px" viewBox="0 0 50 50">
<defs>
<g id="Layer1_1_FILL">
<path fill="#666666" stroke="none" d="
M 37.9 15.45
Q 37.9 9.7 33.85 5.6 29.75 1.55 23.95 1.55 18.2 1.55 14.1 5.6 10.05 9.7 10.05 15.45 10.05 21.25 14.1 25.35 18.2 29.4 23.95 29.4 29.75 29.4 33.85 25.35 37.9 21.25 37.9 15.45
M 48.6 48.2
L 48.6 46.4
Q 48.6 40.45 44.35 36.2 40.15 32 34.2 32
L 15.9 32
Q 9.9 32 5.7 36.2 1.45 40.45 1.45 46.4
L 1.45 48.2
Q 1.45 48.35 1.55 48.45 1.65 48.5 1.8 48.5
L 48.25 48.5
Q 48.4 48.5 48.5 48.45 48.6 48.35 48.6 48.2
M 43.9 36.7
Q 47.95 40.7 47.95 46.4
L 47.95 47.85 2.1 47.85 2.1 46.4
Q 2.1 40.7 6.15 36.7 10.2 32.65 15.9 32.65
L 34.2 32.65
Q 39.9 32.65 43.9 36.7 Z"/>

<path fill="#333333" stroke="none" d="
M 47.95 46.4
Q 47.95 40.7 43.9 36.7 39.9 32.65 34.2 32.65
L 15.9 32.65
Q 10.2 32.65 6.15 36.7 2.1 40.7 2.1 46.4
L 2.1 47.85 47.95 47.85 47.95 46.4 Z"/>
</g>

<path id="Layer1_0_1_STROKES" stroke="#333333" stroke-width="4" stroke-linejoin="round" stroke-linecap="round" fill="none" d="
M 83.4 -12.6
Q 58.8 12 24 12 -10.8 12 -35.4 -12.6 -60 -37.2 -60 -72 -60 -106.8 -35.4 -131.4 -10.8 -156 24 -156 58.8 -156 83.4 -131.4 108 -106.8 108 -72 108 -37.2 83.4 -12.6 Z
M 174 119
Q 174 82.95 148.5 57.45 123.05 32 87 32
L -25.95 32
Q -62 32 -87.5 57.45 -112.95 82.95 -112.95 119
L -112.95 130 174 130 174 119 Z"/>
</defs>

<g id="Layer_5">
<g transform="matrix( 1, 0, 0, 1, -435.1,-47) ">
<use xlink:href="#Layer1_0_1_STROKES"/>
</g>

<g transform="matrix( 1, 0, 0, 1, 0,0) ">
<use xlink:href="#Layer1_1_FILL"/>
</g>
</g>
</svg>
